<svg version="1.1" id="Layer_1" xmlns="http://www.w3.org/2000/svg" xmlns:xlink="http://www.w3.org/1999/xlink" x="0px" y="0px"
	 width="100%" viewBox="0 0 1863 1863" enable-background="new 0 0 1863 1863" xml:space="preserve">
<path fill="#000000" opacity="1.000000" stroke="none" 
	d="
   
M1857.000000,517.500000 
	C1857.000000,407.334351 1857.077393,297.168518 1856.854614,187.003311 
	C1856.836548,178.074036 1855.507080,168.976654 1853.493774,160.255966 
	C1848.541870,138.806152 1840.978760,118.362717 1829.265137,99.455963 
	C1817.707886,80.801697 1803.693970,64.345581 1786.810669,50.563255 
	C1771.519897,38.080940 1754.512573,28.106840 1735.973877,21.004042 
	C1716.044067,13.368254 1695.577271,8.032128 1674.088501,8.030414 
	C1179.098267,7.990910 684.108093,7.970445 189.117966,8.185043 
	C177.776657,8.189960 166.251968,10.124871 155.133789,12.600820 
	C130.963470,17.983395 108.691437,28.090717 88.338982,42.278061 
	C73.787392,52.421711 60.590679,64.186913 49.630756,78.073174 
	C33.180939,98.915154 20.176569,121.826942 13.793553,147.815140 
	C10.656809,160.586288 7.286244,173.771469 7.277672,186.771423 
	C6.949616,684.261353 6.980051,1181.751587 7.156107,1679.241699 
	C7.159312,1688.297974 9.024484,1697.450439 10.845761,1706.390015 
	C15.124907,1727.393921 22.950867,1747.067505 34.069736,1765.452393 
	C45.581993,1784.487671 59.755871,1801.276733 76.959839,1815.276611 
	C92.676033,1828.066162 110.102531,1838.322388 129.102188,1845.484375 
	C149.369705,1853.124023 170.276123,1858.013794 192.134766,1858.013062 
	C686.125000,1857.995972 1180.115234,1858.029053 1674.105347,1857.819946 
	C1685.625000,1857.815063 1697.349121,1856.042725 1708.620239,1853.505737 
	C1732.923584,1848.035400 1755.370605,1837.907349 1775.851685,1823.597900 
	C1790.258789,1813.532349 1803.286499,1801.848022 1814.171387,1788.114868 
	C1826.734985,1772.263672 1837.390137,1755.103271 1844.468018,1736.005859 
	C1851.940186,1715.844604 1857.010986,1695.172607 1857.010254,1673.477173 
	C1856.996216,1288.484741 1857.000000,903.492371 1857.000000,517.500000 
z"/>
<path fill="#E3A72D" opacity="1.000000" stroke="none" 
	d="
M1857.000000,518.000000 
	C1857.000000,903.492371 1856.996216,1288.484741 1857.010254,1673.477173 
	C1857.010986,1695.172607 1851.940186,1715.844604 1844.468018,1736.005859 
	C1837.390137,1755.103271 1826.734985,1772.263672 1814.171387,1788.114868 
	C1803.286499,1801.848022 1790.258789,1813.532349 1775.851685,1823.597900 
	C1755.370605,1837.907349 1732.923584,1848.035400 1708.620239,1853.505737 
	C1697.349121,1856.042725 1685.625000,1857.815063 1674.105347,1857.819946 
	C1180.115234,1858.029053 686.125000,1857.995972 192.134766,1858.013062 
	C170.276123,1858.013794 149.369705,1853.124023 129.102188,1845.484375 
	C110.102531,1838.322388 92.676033,1828.066162 76.959839,1815.276611 
	C59.755871,1801.276733 45.581993,1784.487671 34.069736,1765.452393 
	C22.950867,1747.067505 15.124907,1727.393921 10.845761,1706.390015 
	C9.024484,1697.450439 7.159312,1688.297974 7.156107,1679.241699 
	C6.980051,1181.751587 6.949616,684.261353 7.277672,186.771423 
	C7.286244,173.771469 10.656809,160.586288 13.793553,147.815140 
	C20.176569,121.826942 33.180939,98.915154 49.630756,78.073174 
	C60.590679,64.186913 73.787392,52.421711 88.338982,42.278061 
	C108.691437,28.090717 130.963470,17.983395 155.133789,12.600820 
	C166.251968,10.124871 177.776657,8.189960 189.117966,8.185043 
	C684.108093,7.970445 1179.098267,7.990910 1674.088501,8.030414 
	C1695.577271,8.032128 1716.044067,13.368254 1735.973877,21.004042 
	C1754.512573,28.106840 1771.519897,38.080940 1786.810669,50.563255 
	C1803.693970,64.345581 1817.707886,80.801697 1829.265137,99.455963 
	C1840.978760,118.362717 1848.541870,138.806152 1853.493774,160.255966 
	C1855.507080,168.976654 1856.836548,178.074036 1856.854614,187.003311 
	C1857.077393,297.168518 1857.000000,407.334351 1857.000000,518.000000 
M1251.929932,1531.127319 
	C1263.835327,1531.127319 1275.740723,1531.127319 1288.179199,1531.127319 
	C1288.179199,1570.636108 1288.179199,1609.195312 1288.179199,1647.749023 
	C1299.506470,1647.749023 1310.280640,1647.749023 1321.657715,1647.749023 
	C1321.657715,1608.934814 1321.657715,1570.365356 1321.657715,1531.087402 
	C1334.454956,1531.087402 1346.666992,1531.087402 1358.845459,1531.087402 
	C1358.845459,1522.128296 1358.845459,1513.888672 1358.845459,1505.589111 
	C1322.442383,1505.589111 1286.407104,1505.589111 1250.168945,1505.589111 
	C1250.168945,1513.997314 1250.168945,1521.982788 1250.122437,1530.513916 
	C1250.414795,1530.676636 1250.707275,1530.839233 1251.929932,1531.127319 
M468.242676,1556.968140 
	C468.242676,1539.071045 468.242676,1521.173828 468.242676,1503.435303 
	C457.647278,1503.435303 447.932495,1503.435303 438.357147,1503.435303 
	C438.357147,1551.775757 438.357147,1599.678589 438.357147,1647.651489 
	C448.403229,1647.651489 458.128235,1647.651489 468.214264,1647.651489 
	C468.214264,1629.502686 468.405518,1611.698975 468.143982,1593.901733 
	C467.982025,1582.880859 473.956116,1575.277100 481.809082,1569.196533 
	C489.916321,1562.918701 499.569275,1567.744507 500.574066,1577.921265 
	C500.802551,1580.235474 500.791748,1582.578979 500.793701,1584.908936 
	C500.809845,1604.064331 500.802979,1623.219604 500.803101,1642.375000 
	C500.803101,1644.130493 500.803101,1645.885864 500.803101,1647.611816 
	C511.267242,1647.611816 520.983276,1647.611816 530.674133,1647.611816 
	C530.801941,1646.742676 530.940796,1646.256470 530.934937,1645.772095 
	C530.641602,1621.501343 530.708557,1597.217773 529.865845,1572.965820 
	C529.475159,1561.722534 524.576965,1551.873779 513.380981,1547.624268 
	C494.580872,1540.488281 482.313019,1543.186279 471.312103,1556.108154 
	C470.674408,1556.857178 469.900146,1557.489990 468.777771,1557.961548 
	C468.777771,1557.961548 468.319153,1557.888062 468.242676,1556.968140 
M954.351685,557.155151 
	C957.106201,560.641602 959.717773,564.253113 962.639648,567.593079 
	C975.985474,582.848450 989.511475,597.946838 1002.796387,613.254761 
	C1019.072266,632.009216 1035.181396,650.908508 1051.346191,669.759277 
	C1066.942383,687.946899 1082.483398,706.181885 1098.115479,724.338440 
	C1106.390259,733.949402 1114.807251,743.437683 1124.244507,754.220581 
	C1125.549194,752.172485 1126.292603,750.618225 1127.378662,749.359558 
	C1139.933594,734.810181 1152.583374,720.342468 1165.124512,705.781128 
	C1191.641113,674.993286 1218.087402,644.144775 1244.612549,613.364380 
	C1250.183960,606.899231 1250.239990,607.023254 1244.751587,600.759521 
	C1231.540527,585.681885 1218.300781,570.628235 1205.206543,555.449280 
	C1184.036987,530.909180 1162.989380,506.263916 1141.862915,481.686554 
	C1124.801025,461.837677 1107.672119,442.046356 1090.621948,422.187347 
	C1073.181152,401.873138 1055.828979,381.482910 1038.383545,361.172699 
	C1025.562866,346.246857 1012.648743,331.401276 999.786743,316.510834 
	C988.129822,303.015594 976.482788,289.511627 964.839294,276.004700 
	C954.608765,264.136810 944.389099,252.259521 933.689209,239.834320 
	C826.618042,364.097717 719.517090,488.395721 612.462524,612.639832 
	C613.453064,613.993652 613.897705,614.694641 614.432251,615.318542 
	C633.005371,636.996765 651.541077,658.707336 670.180542,680.328491 
	C688.203918,701.234985 706.335266,722.048401 724.419189,742.902710 
	C743.833557,765.291321 763.306641,787.629395 782.643982,810.084351 
	C798.722839,828.755310 814.580811,847.616333 830.647827,866.297546 
	C850.410767,889.276245 870.305420,912.141663 890.112427,935.082520 
	C905.251221,952.616577 920.331726,970.200928 935.456909,987.746643 
	C955.145386,1010.585999 974.828003,1033.430420 994.562073,1056.230347 
	C1003.782349,1066.883057 1013.200806,1077.364624 1022.379578,1088.052490 
	C1033.598511,1101.115967 1044.639771,1114.331787 1055.800171,1127.445679 
	C1060.024536,1132.409668 1060.164185,1133.427612 1055.856934,1138.437744 
	C1045.405762,1150.593994 1034.850464,1162.660645 1024.380981,1174.801270 
	C1009.930359,1191.558350 995.526062,1208.355469 981.090454,1225.125610 
	C965.441223,1243.305664 949.736145,1261.438110 934.160889,1279.681152 
	C931.278442,1283.057373 929.137634,1282.562378 926.538452,1279.477173 
	C908.551025,1258.126099 890.614075,1236.730713 872.434937,1215.543457 
	C860.076294,1201.140015 847.301575,1187.094360 834.804321,1172.808716 
	C824.012451,1160.472412 813.354065,1148.019531 802.626831,1135.626709 
	C800.110535,1132.719727 798.935608,1130.236694 802.335815,1126.699463 
	C807.707947,1121.110718 812.393982,1114.867065 817.453064,1108.971558 
	C831.709656,1092.357666 845.946289,1075.725708 860.353271,1059.242920 
	C862.671082,1056.591187 862.350952,1054.860352 860.274597,1052.441650 
	C854.548889,1045.772339 849.101074,1038.864258 843.365295,1032.203857 
	C821.241150,1006.513000 799.042603,980.886230 776.881958,955.226746 
	C764.649536,941.062988 752.389465,926.922546 740.255615,912.674683 
	C737.740479,909.721375 736.019592,909.654541 733.663513,912.823914 
	C731.010132,916.393127 727.927185,919.644043 725.016418,923.020691 
	C708.037292,942.717712 691.087463,962.440063 674.060974,982.096069 
	C661.120544,997.034973 647.986267,1011.806458 635.106873,1026.797363 
	C614.405396,1050.892700 593.850525,1075.113770 573.218933,1099.269165 
	C564.221680,1109.803223 555.187927,1120.306152 546.299377,1130.673218 
	C548.335815,1133.324341 549.938599,1135.621704 551.751953,1137.738525 
	C566.849304,1155.362061 581.934387,1172.996460 597.121399,1190.542603 
	C622.004150,1219.290649 647.038147,1247.908081 671.863098,1276.705811 
	C694.013977,1302.401611 715.889832,1328.334595 738.035034,1354.035400 
	C754.843140,1373.542358 771.987976,1392.760010 788.719482,1412.331665 
	C791.545288,1415.637085 794.368652,1416.819580 798.515564,1416.815918 
	C884.844543,1416.737793 971.173645,1416.757446 1057.502686,1416.754395 
	C1060.168823,1416.754272 1062.868774,1416.963379 1065.488647,1416.604736 
	C1067.139648,1416.378906 1069.150269,1415.694336 1070.184814,1414.506104 
	C1089.783081,1391.996216 1109.256348,1369.377686 1128.762329,1346.787476 
	C1149.405396,1322.880371 1170.090454,1299.009521 1190.693481,1275.068115 
	C1216.275635,1245.341064 1241.748779,1215.520142 1267.354370,1185.813110 
	C1282.017822,1168.801147 1296.880615,1151.961060 1311.520020,1134.928589 
	C1312.268799,1134.057373 1312.409180,1131.539917 1311.723145,1130.735229 
	C1306.020264,1124.046753 1299.903809,1117.710938 1294.198120,1111.024658 
	C1271.860596,1084.847656 1249.727173,1058.495972 1227.324585,1032.374878 
	C1209.380859,1011.452820 1191.111572,990.810303 1173.069336,969.972229 
	C1149.383911,942.616333 1125.763184,915.204529 1102.145020,887.790588 
	C1077.123169,858.747253 1052.137939,829.672424 1027.135254,800.612671 
	C1006.950623,777.152649 986.778687,753.681580 966.573364,730.239441 
	C948.716858,709.522278 930.836182,688.825745 912.939514,668.143250 
	C898.109741,651.005066 883.134766,633.989685 868.564026,616.634583 
	C867.195801,615.004944 867.128662,610.484497 868.410950,608.752075 
	C872.971558,602.590393 878.430664,597.100098 883.453369,591.272766 
	C899.013123,573.220276 914.529846,555.130798 930.059753,537.052612 
	C932.117737,534.657043 933.959534,533.773376 936.490662,536.794739 
	C942.135315,543.532593 948.045471,550.048035 954.351685,557.155151 
M1286.119385,717.624756 
	C1274.370605,731.487427 1262.710815,745.426880 1250.848999,759.192078 
	C1237.973633,774.133484 1224.890259,788.895508 1211.937256,803.770386 
	C1205.635620,811.007141 1199.734863,818.625061 1193.053955,825.487610 
	C1189.133057,829.514954 1190.760254,832.332825 1193.439941,835.425476 
	C1210.566284,855.191772 1227.784180,874.878601 1244.910034,894.645325 
	C1269.355225,922.859863 1293.752563,951.115784 1318.160034,979.363037 
	C1338.078613,1002.415161 1357.972900,1025.488159 1377.913452,1048.521118 
	C1379.144043,1049.942383 1380.684570,1051.095337 1382.461182,1052.721069 
	C1509.905396,904.820618 1636.920044,757.418823 1763.934570,610.017029 
	C1763.625000,609.615784 1763.315430,609.214478 1763.005859,608.813232 
	C1761.195923,608.813232 1759.386108,608.813232 1757.576172,608.813232 
	C1677.743286,608.813293 1597.910400,608.847290 1518.077637,608.714722 
	C1514.022095,608.707947 1511.377197,609.877441 1508.767822,612.920776 
	C1489.354614,635.563110 1469.761353,658.050842 1450.258423,680.616272 
	C1435.983643,697.132629 1421.759033,713.692505 1407.514404,730.234985 
	C1399.234619,739.850281 1390.959473,749.469421 1381.930176,759.960693 
	C1377.225708,754.354980 1373.048584,749.264648 1368.751587,744.277649 
	C1352.754883,725.712463 1336.689819,707.206299 1320.716919,688.620850 
	C1316.404419,683.603149 1315.335083,683.636475 1310.892090,688.846436 
	C1302.831055,698.299072 1294.621948,707.625549 1286.119385,717.624756 
M541.942749,694.388855 
	C534.562988,702.906494 527.145935,711.392212 519.812378,719.949402 
	C508.907593,732.673584 498.048431,745.436951 487.198975,758.208435 
	C483.862061,762.136414 481.217712,762.222717 477.878662,758.392822 
	C475.585693,755.762817 473.247101,753.172363 470.971924,750.527283 
	C450.453156,726.672058 429.950287,702.803101 409.429871,678.949280 
	C392.225006,658.949585 374.961487,639.000122 357.831970,618.936218 
	C355.171875,615.820374 352.405670,614.174744 348.098999,614.177307 
	C267.436676,614.225037 186.774231,614.127502 106.111794,614.095947 
	C104.814484,614.095459 103.516991,614.538757 101.801941,614.851013 
	C111.351433,626.111145 120.270432,636.766113 129.341492,647.289978 
	C141.653442,661.573792 154.163712,675.687012 166.439056,690.001892 
	C181.201263,707.216797 195.689713,724.667175 210.511246,741.830322 
	C225.773315,759.503601 241.405518,776.857178 256.672455,794.526306 
	C275.383240,816.181396 293.838226,838.057190 312.486877,859.766296 
	C330.380768,880.596680 348.411865,901.309082 366.326355,922.121826 
	C390.746063,950.492126 415.110077,978.910400 439.502502,1007.304260 
	C452.149719,1022.026184 464.829071,1036.720581 477.446808,1051.467651 
	C481.718994,1056.460938 482.625275,1056.490479 486.852631,1051.546265 
	C506.468994,1028.603271 526.027039,1005.609619 545.767822,982.774048 
	C564.165161,961.492615 582.850586,940.460327 601.253967,919.184082 
	C619.669128,897.894287 637.883118,876.430542 656.204895,855.059875 
	C661.872925,848.448486 667.604980,841.891968 673.437988,835.160217 
	C668.389343,829.352600 663.726990,824.030640 659.109375,818.670227 
	C640.612000,797.196960 622.125305,775.714417 603.640686,754.230225 
	C586.438354,734.236267 569.228943,714.248413 552.055420,694.229736 
	C547.305115,688.692444 547.347412,688.645752 541.942749,694.388855 
M237.995773,1643.563721 
	C238.374649,1644.973999 238.753540,1646.384277 239.187103,1647.998047 
	C252.427933,1647.998047 265.413574,1648.098877 278.392151,1647.842529 
	C279.696594,1647.816772 281.617981,1645.862793 282.137451,1644.405884 
	C287.221100,1630.150269 292.069580,1615.810669 296.981232,1601.493774 
	C302.086121,1586.613525 307.186829,1571.731812 312.736084,1555.548096 
	C313.731293,1558.857910 314.378479,1560.875122 314.944885,1562.914795 
	C322.376984,1589.680664 329.752136,1616.462524 337.322113,1643.189209 
	C337.835205,1645.000732 339.757690,1647.751953 341.084656,1647.786987 
	C354.216339,1648.132202 367.360748,1647.995728 380.755829,1647.995728 
	C392.732574,1600.385742 404.628876,1553.095703 416.684509,1505.172119 
	C405.779388,1505.172119 395.966888,1505.045044 386.167175,1505.340820 
	C385.005920,1505.375854 383.237671,1507.564453 382.891510,1509.025024 
	C377.137482,1533.306152 371.572144,1557.632080 365.949493,1581.944458 
	C364.182739,1589.583984 362.371155,1597.213135 360.580048,1604.846924 
	C360.165344,1604.831299 359.750610,1604.815552 359.335907,1604.799927 
	C351.850067,1573.687744 344.364258,1542.575562 336.807617,1511.169189 
	C323.353668,1511.169189 310.207520,1511.048828 297.071228,1511.353516 
	C295.743042,1511.384277 293.822266,1513.765869 293.281311,1515.418213 
	C289.037781,1528.379639 285.070129,1541.431152 281.005493,1554.451172 
	C275.610168,1571.733887 270.204010,1589.013184 264.802521,1606.293945 
	C264.528412,1606.289795 264.254333,1606.285522 263.980255,1606.281372 
	C257.241669,1572.626221 250.503052,1538.971069 243.826538,1505.625977 
	C231.718307,1505.625977 220.355331,1505.625977 208.335831,1505.625977 
	C218.259811,1551.715698 228.058716,1597.224365 237.995773,1643.563721 
M956.996887,1622.358887 
	C957.347229,1630.518921 960.040955,1637.593994 966.517456,1642.916626 
	C976.128418,1650.815430 1000.789490,1655.317383 1013.523376,1645.565796 
	C1016.478577,1643.302734 1019.658997,1641.333496 1022.965637,1639.071777 
	C1023.986084,1641.358765 1024.649780,1643.248047 1025.646606,1644.941284 
	C1026.325562,1646.094482 1027.449585,1647.819580 1028.409912,1647.843018 
	C1037.450195,1648.064697 1046.498047,1647.974854 1054.228638,1647.974854 
	C1053.242920,1629.978638 1052.207886,1612.754883 1051.401001,1595.520630 
	C1051.081909,1588.705566 1051.503784,1581.855713 1051.179565,1575.041016 
	C1050.442383,1559.546509 1042.729248,1550.181885 1027.718140,1546.045776 
	C1014.531372,1542.412354 1001.232483,1543.954224 988.035217,1545.594238 
	C979.057312,1546.709961 970.212952,1548.900635 960.688965,1550.729736 
	C964.549377,1559.852783 967.898499,1567.767456 971.342102,1575.905640 
	C983.436951,1570.680542 995.653442,1567.719238 1008.423157,1567.230103 
	C1016.940857,1566.903809 1020.541626,1570.490112 1021.012878,1578.996582 
	C1021.241150,1583.117798 1019.636841,1583.951294 1015.849731,1584.102417 
	C1006.573853,1584.472412 997.120239,1584.421509 988.099304,1586.286743 
	C970.685181,1589.887329 957.278748,1600.162598 956.996887,1622.358887 
M834.145264,1591.531372 
	C833.726257,1588.231079 833.506409,1584.890869 832.854736,1581.637207 
	C829.478210,1564.777466 822.076965,1550.826172 803.888855,1546.569702 
	C795.892456,1544.698486 787.356567,1543.842041 779.174072,1544.333130 
	C763.570496,1545.269653 750.363342,1551.800049 742.564697,1566.015259 
	C733.931091,1581.752319 731.390625,1598.444336 736.979004,1615.965576 
	C742.400452,1632.963257 753.217468,1644.625854 770.677856,1648.930542 
	C790.031860,1653.702148 808.961487,1650.865234 827.375000,1643.804932 
	C827.763977,1643.655762 827.997314,1643.100342 828.528320,1642.465332 
	C825.419250,1635.261230 822.285583,1628.000244 819.061218,1620.529175 
	C817.328247,1621.218506 816.159119,1621.848145 814.910706,1622.154053 
	C805.453674,1624.470215 796.083618,1627.782349 786.485962,1628.710571 
	C775.987122,1629.725952 766.891785,1620.457886 767.117798,1610.421631 
	C789.651428,1610.421631 812.211182,1610.421631 835.325928,1610.421631 
	C834.897827,1603.961670 834.516968,1598.213745 834.145264,1591.531372 
M1206.118164,1625.777832 
	C1199.763794,1626.850464 1193.426636,1628.680298 1187.051270,1628.823853 
	C1176.604370,1629.059204 1167.728394,1620.164673 1167.956421,1610.287964 
	C1190.513672,1610.287964 1213.088257,1610.287964 1236.340332,1610.287964 
	C1235.867188,1604.474609 1235.158813,1599.246704 1235.076782,1594.009033 
	C1234.925781,1584.368652 1233.013916,1575.153809 1228.947632,1566.456909 
	C1224.594360,1557.145996 1217.867920,1549.801147 1207.666138,1547.529907 
	C1198.670044,1545.526978 1189.245483,1543.954346 1180.113770,1544.385254 
	C1164.102539,1545.140747 1150.789551,1552.183594 1143.009033,1566.885620 
	C1134.039185,1583.834839 1132.262329,1601.603638 1139.244995,1619.768555 
	C1145.073486,1634.931152 1155.714355,1645.588501 1171.692627,1648.739258 
	C1181.796143,1650.731567 1192.532593,1650.732544 1202.864868,1649.978760 
	C1211.797729,1649.327026 1220.561035,1646.350586 1230.227417,1644.219360 
	C1226.435669,1635.417236 1223.254150,1628.031982 1220.064331,1620.627197 
	C1215.257690,1622.399536 1211.064087,1623.945679 1206.118164,1625.777832 
M1382.028442,1548.341553 
	C1367.639404,1554.853882 1358.950684,1566.097412 1355.481567,1581.276367 
	C1352.491577,1594.359863 1353.163574,1607.427979 1357.530762,1620.173828 
	C1362.468262,1634.583740 1372.330811,1644.452393 1386.926880,1648.331787 
	C1394.982788,1650.472778 1403.712036,1651.118042 1412.083496,1650.834717 
	C1434.980591,1650.059570 1451.990234,1635.878784 1456.526489,1613.469727 
	C1458.249512,1604.957153 1458.455811,1595.855469 1457.675171,1587.173096 
	C1455.629639,1564.421875 1443.225830,1550.534180 1421.105347,1545.477783 
	C1408.167480,1542.520508 1395.296143,1543.679810 1382.028442,1548.341553 
M1543.946899,1545.387085 
	C1537.485474,1544.955444 1531.005737,1543.975952 1524.565796,1544.190308 
	C1500.983765,1544.974487 1483.959961,1558.367432 1478.522095,1580.540405 
	C1475.070801,1594.612793 1475.907227,1608.692993 1481.145264,1622.259521 
	C1485.680542,1634.005859 1493.902710,1642.400879 1505.725830,1647.028687 
	C1518.207642,1651.914307 1531.061157,1652.366089 1544.011963,1649.550903 
	C1562.353149,1645.563965 1573.712769,1633.995972 1578.849243,1616.195190 
	C1581.851929,1605.789307 1581.896240,1595.170776 1580.204224,1584.519165 
	C1576.821289,1563.222778 1565.388306,1550.697144 1543.946899,1545.387085 
M642.682312,1638.186035 
	C659.161987,1620.686157 660.537109,1599.865479 655.313049,1577.954956 
	C651.394287,1561.519165 640.762207,1551.024536 624.434998,1546.454590 
	C613.313721,1543.341675 602.128906,1543.237915 590.843994,1545.655151 
	C572.687378,1549.544189 561.077576,1560.522461 555.802673,1578.133301 
	C551.244385,1593.351807 552.401733,1608.441406 558.092285,1623.172241 
	C561.109253,1630.982300 566.317932,1637.221558 573.076904,1642.117676 
	C590.885376,1655.018188 626.060608,1654.502197 642.682312,1638.186035 
M908.688599,1620.710205 
	C908.809143,1624.918335 906.125732,1626.577271 902.558472,1627.293335 
	C893.482117,1629.115112 884.699402,1628.160522 876.174377,1624.501709 
	C871.966858,1622.695801 867.659790,1621.121826 863.064819,1619.311768 
	C859.508301,1627.809448 856.206970,1635.697144 852.718872,1644.031372 
	C855.955322,1644.965576 858.619080,1645.815674 861.324463,1646.502319 
	C879.089417,1651.011230 896.974304,1653.293335 915.125977,1648.913330 
	C928.286804,1645.737793 937.819824,1636.606689 938.997253,1626.255249 
	C940.826172,1610.176147 935.437012,1599.045410 922.124207,1592.078735 
	C918.170593,1590.009888 913.924438,1588.468506 909.736389,1586.886475 
	C903.524597,1584.540283 897.056763,1582.768311 891.093140,1579.923462 
	C888.901611,1578.877808 886.446472,1575.341431 886.655090,1573.187622 
	C886.852844,1571.147095 890.105591,1568.399536 892.495422,1567.760620 
	C899.886719,1565.784668 907.363525,1566.665527 914.536987,1569.369385 
	C918.395813,1570.823975 922.165405,1572.515381 926.420715,1574.285034 
	C929.785950,1566.171387 933.043457,1558.317505 936.426453,1550.161133 
	C920.393677,1545.659180 904.903137,1542.384033 888.975281,1544.592773 
	C882.004700,1545.559326 874.971741,1547.681519 868.542175,1550.562378 
	C859.300354,1554.703491 855.493530,1563.257935 855.112610,1572.845703 
	C854.447693,1589.582642 862.567078,1601.514282 878.641663,1607.862549 
	C885.263672,1610.477661 892.383423,1611.815063 899.067261,1614.297607 
	C902.441040,1615.550537 905.347656,1618.061279 908.688599,1620.710205 
M1604.590332,1517.503906 
	C1604.590332,1560.876465 1604.590332,1604.249023 1604.590332,1647.586914 
	C1615.117920,1647.586914 1624.823975,1647.586914 1634.546143,1647.586914 
	C1634.546143,1599.289429 1634.546143,1551.405518 1634.546143,1503.312012 
	C1624.526611,1503.312012 1614.803345,1503.312012 1604.589966,1503.312012 
	C1604.589966,1507.914062 1604.589966,1512.210327 1604.590332,1517.503906 
M1109.296021,1647.994751 
	C1113.392822,1648.238647 1112.158569,1645.123535 1112.161011,1643.124023 
	C1112.217407,1597.988159 1112.207275,1552.852295 1112.190796,1507.716431 
	C1112.190308,1506.277344 1111.990112,1504.838379 1111.880127,1503.359375 
	C1101.808838,1503.359375 1092.093750,1503.359375 1082.453125,1503.359375 
	C1082.453125,1551.739502 1082.453125,1599.758545 1082.453125,1647.999878 
	C1091.352295,1647.999878 1099.839600,1647.999878 1109.296021,1647.994751 
M681.068604,1618.500000 
	C681.068604,1628.248779 681.068604,1637.997559 681.068604,1647.743652 
	C691.461853,1647.743652 701.063049,1647.743652 710.931030,1647.743652 
	C710.931030,1599.480225 710.931030,1551.474854 710.931030,1503.342773 
	C700.889465,1503.342773 691.175354,1503.342773 681.068604,1503.342773 
	C681.068604,1541.623901 681.068604,1579.562012 681.068604,1618.500000 
z"/>
<path fill="#1A0F73" opacity="1.000000" stroke="none" 
	d="
M954.099487,556.904663 
	C948.045471,550.048035 942.135315,543.532593 936.490662,536.794739 
	C933.959534,533.773376 932.117737,534.657043 930.059753,537.052612 
	C914.529846,555.130798 899.013123,573.220276 883.453369,591.272766 
	C878.430664,597.100098 872.971558,602.590393 868.410950,608.752075 
	C867.128662,610.484497 867.195801,615.004944 868.564026,616.634583 
	C883.134766,633.989685 898.109741,651.005066 912.939514,668.143250 
	C930.836182,688.825745 948.716858,709.522278 966.573364,730.239441 
	C986.778687,753.681580 1006.950623,777.152649 1027.135254,800.612671 
	C1052.137939,829.672424 1077.123169,858.747253 1102.145020,887.790588 
	C1125.763184,915.204529 1149.383911,942.616333 1173.069336,969.972229 
	C1191.111572,990.810303 1209.380859,1011.452820 1227.324585,1032.374878 
	C1249.727173,1058.495972 1271.860596,1084.847656 1294.198120,1111.024658 
	C1299.903809,1117.710938 1306.020264,1124.046753 1311.723145,1130.735229 
	C1312.409180,1131.539917 1312.268799,1134.057373 1311.520020,1134.928589 
	C1296.880615,1151.961060 1282.017822,1168.801147 1267.354370,1185.813110 
	C1241.748779,1215.520142 1216.275635,1245.341064 1190.693481,1275.068115 
	C1170.090454,1299.009521 1149.405396,1322.880371 1128.762329,1346.787476 
	C1109.256348,1369.377686 1089.783081,1391.996216 1070.184814,1414.506104 
	C1069.150269,1415.694336 1067.139648,1416.378906 1065.488647,1416.604736 
	C1062.868774,1416.963379 1060.168823,1416.754272 1057.502686,1416.754395 
	C971.173645,1416.757446 884.844543,1416.737793 798.515564,1416.815918 
	C794.368652,1416.819580 791.545288,1415.637085 788.719482,1412.331665 
	C771.987976,1392.760010 754.843140,1373.542358 738.035034,1354.035400 
	C715.889832,1328.334595 694.013977,1302.401611 671.863098,1276.705811 
	C647.038147,1247.908081 622.004150,1219.290649 597.121399,1190.542603 
	C581.934387,1172.996460 566.849304,1155.362061 551.751953,1137.738525 
	C549.938599,1135.621704 548.335815,1133.324341 546.299377,1130.673218 
	C555.187927,1120.306152 564.221680,1109.803223 573.218933,1099.269165 
	C593.850525,1075.113770 614.405396,1050.892700 635.106873,1026.797363 
	C647.986267,1011.806458 661.120544,997.034973 674.060974,982.096069 
	C691.087463,962.440063 708.037292,942.717712 725.016418,923.020691 
	C727.927185,919.644043 731.010132,916.393127 733.663513,912.823914 
	C736.019592,909.654541 737.740479,909.721375 740.255615,912.674683 
	C752.389465,926.922546 764.649536,941.062988 776.881958,955.226746 
	C799.042603,980.886230 821.241150,1006.513000 843.365295,1032.203857 
	C849.101074,1038.864258 854.548889,1045.772339 860.274597,1052.441650 
	C862.350952,1054.860352 862.671082,1056.591187 860.353271,1059.242920 
	C845.946289,1075.725708 831.709656,1092.357666 817.453064,1108.971558 
	C812.393982,1114.867065 807.707947,1121.110718 802.335815,1126.699463 
	C798.935608,1130.236694 800.110535,1132.719727 802.626831,1135.626709 
	C813.354065,1148.019531 824.012451,1160.472412 834.804321,1172.808716 
	C847.301575,1187.094360 860.076294,1201.140015 872.434937,1215.543457 
	C890.614075,1236.730713 908.551025,1258.126099 926.538452,1279.477173 
	C929.137634,1282.562378 931.278442,1283.057373 934.160889,1279.681152 
	C949.736145,1261.438110 965.441223,1243.305664 981.090454,1225.125610 
	C995.526062,1208.355469 1009.930359,1191.558350 1024.380981,1174.801270 
	C1034.850464,1162.660645 1045.405762,1150.593994 1055.856934,1138.437744 
	C1060.164185,1133.427612 1060.024536,1132.409668 1055.800171,1127.445679 
	C1044.639771,1114.331787 1033.598511,1101.115967 1022.379578,1088.052490 
	C1013.200806,1077.364624 1003.782349,1066.883057 994.562073,1056.230347 
	C974.828003,1033.430420 955.145386,1010.585999 935.456909,987.746643 
	C920.331726,970.200928 905.251221,952.616577 890.112427,935.082520 
	C870.305420,912.141663 850.410767,889.276245 830.647827,866.297546 
	C814.580811,847.616333 798.722839,828.755310 782.643982,810.084351 
	C763.306641,787.629395 743.833557,765.291321 724.419189,742.902710 
	C706.335266,722.048401 688.203918,701.234985 670.180542,680.328491 
	C651.541077,658.707336 633.005371,636.996765 614.432251,615.318542 
	C613.897705,614.694641 613.453064,613.993652 612.462524,612.639832 
	C719.517090,488.395721 826.618042,364.097717 933.689209,239.834320 
	C944.389099,252.259521 954.608765,264.136810 964.839294,276.004700 
	C976.482788,289.511627 988.129822,303.015594 999.786743,316.510834 
	C1012.648743,331.401276 1025.562866,346.246857 1038.383545,361.172699 
	C1055.828979,381.482910 1073.181152,401.873138 1090.621948,422.187347 
	C1107.672119,442.046356 1124.801025,461.837677 1141.862915,481.686554 
	C1162.989380,506.263916 1184.036987,530.909180 1205.206543,555.449280 
	C1218.300781,570.628235 1231.540527,585.681885 1244.751587,600.759521 
	C1250.239990,607.023254 1250.183960,606.899231 1244.612549,613.364380 
	C1218.087402,644.144775 1191.641113,674.993286 1165.124512,705.781128 
	C1152.583374,720.342468 1139.933594,734.810181 1127.378662,749.359558 
	C1126.292603,750.618225 1125.549194,752.172485 1124.244507,754.220581 
	C1114.807251,743.437683 1106.390259,733.949402 1098.115479,724.338440 
	C1082.483398,706.181885 1066.942383,687.946899 1051.346191,669.759277 
	C1035.181396,650.908508 1019.072266,632.009216 1002.796387,613.254761 
	C989.511475,597.946838 975.985474,582.848450 962.639648,567.593079 
	C959.717773,564.253113 957.106201,560.641602 954.099487,556.904663 
z"/>
<path fill="#FFFFFF" opacity="1.000000" stroke="none" 
	d="
M1286.296997,717.314697 
	C1294.621948,707.625549 1302.831055,698.299072 1310.892090,688.846436 
	C1315.335083,683.636475 1316.404419,683.603149 1320.716919,688.620850 
	C1336.689819,707.206299 1352.754883,725.712463 1368.751587,744.277649 
	C1373.048584,749.264648 1377.225708,754.354980 1381.930176,759.960693 
	C1390.959473,749.469421 1399.234619,739.850281 1407.514404,730.234985 
	C1421.759033,713.692505 1435.983643,697.132629 1450.258423,680.616272 
	C1469.761353,658.050842 1489.354614,635.563110 1508.767822,612.920776 
	C1511.377197,609.877441 1514.022095,608.707947 1518.077637,608.714722 
	C1597.910400,608.847290 1677.743286,608.813293 1757.576172,608.813232 
	C1759.386108,608.813232 1761.195923,608.813232 1763.005859,608.813232 
	C1763.315430,609.214478 1763.625000,609.615784 1763.934570,610.017029 
	C1636.920044,757.418823 1509.905396,904.820618 1382.461182,1052.721069 
	C1380.684570,1051.095337 1379.144043,1049.942383 1377.913452,1048.521118 
	C1357.972900,1025.488159 1338.078613,1002.415161 1318.160034,979.363037 
	C1293.752563,951.115784 1269.355225,922.859863 1244.910034,894.645325 
	C1227.784180,874.878601 1210.566284,855.191772 1193.439941,835.425476 
	C1190.760254,832.332825 1189.133057,829.514954 1193.053955,825.487610 
	C1199.734863,818.625061 1205.635620,811.007141 1211.937256,803.770386 
	C1224.890259,788.895508 1237.973633,774.133484 1250.848999,759.192078 
	C1262.710815,745.426880 1274.370605,731.487427 1286.296997,717.314697 
z"/>
<path fill="#FFFFFF" opacity="1.000000" stroke="none" 
	d="
M542.128906,694.077332 
	C547.347412,688.645752 547.305115,688.692444 552.055420,694.229736 
	C569.228943,714.248413 586.438354,734.236267 603.640686,754.230225 
	C622.125305,775.714417 640.612000,797.196960 659.109375,818.670227 
	C663.726990,824.030640 668.389343,829.352600 673.437988,835.160217 
	C667.604980,841.891968 661.872925,848.448486 656.204895,855.059875 
	C637.883118,876.430542 619.669128,897.894287 601.253967,919.184082 
	C582.850586,940.460327 564.165161,961.492615 545.767822,982.774048 
	C526.027039,1005.609619 506.468994,1028.603271 486.852631,1051.546265 
	C482.625275,1056.490479 481.718994,1056.460938 477.446808,1051.467651 
	C464.829071,1036.720581 452.149719,1022.026184 439.502502,1007.304260 
	C415.110077,978.910400 390.746063,950.492126 366.326355,922.121826 
	C348.411865,901.309082 330.380768,880.596680 312.486877,859.766296 
	C293.838226,838.057190 275.383240,816.181396 256.672455,794.526306 
	C241.405518,776.857178 225.773315,759.503601 210.511246,741.830322 
	C195.689713,724.667175 181.201263,707.216797 166.439056,690.001892 
	C154.163712,675.687012 141.653442,661.573792 129.341492,647.289978 
	C120.270432,636.766113 111.351433,626.111145 101.801941,614.851013 
	C103.516991,614.538757 104.814484,614.095459 106.111794,614.095947 
	C186.774231,614.127502 267.436676,614.225037 348.098999,614.177307 
	C352.405670,614.174744 355.171875,615.820374 357.831970,618.936218 
	C374.961487,639.000122 392.225006,658.949585 409.429871,678.949280 
	C429.950287,702.803101 450.453156,726.672058 470.971924,750.527283 
	C473.247101,753.172363 475.585693,755.762817 477.878662,758.392822 
	C481.217712,762.222717 483.862061,762.136414 487.198975,758.208435 
	C498.048431,745.436951 508.907593,732.673584 519.812378,719.949402 
	C527.145935,711.392212 534.562988,702.906494 542.128906,694.077332 
z"/>
<path fill="#FFFEFE" opacity="1.000000" stroke="none" 
	d="
M237.926697,1643.148438 
	C228.058716,1597.224365 218.259811,1551.715698 208.335831,1505.625977 
	C220.355331,1505.625977 231.718307,1505.625977 243.826538,1505.625977 
	C250.503052,1538.971069 257.241669,1572.626221 263.980255,1606.281372 
	C264.254333,1606.285522 264.528412,1606.289795 264.802521,1606.293945 
	C270.204010,1589.013184 275.610168,1571.733887 281.005493,1554.451172 
	C285.070129,1541.431152 289.037781,1528.379639 293.281311,1515.418213 
	C293.822266,1513.765869 295.743042,1511.384277 297.071228,1511.353516 
	C310.207520,1511.048828 323.353668,1511.169189 336.807617,1511.169189 
	C344.364258,1542.575562 351.850067,1573.687744 359.335907,1604.799927 
	C359.750610,1604.815552 360.165344,1604.831299 360.580048,1604.846924 
	C362.371155,1597.213135 364.182739,1589.583984 365.949493,1581.944458 
	C371.572144,1557.632080 377.137482,1533.306152 382.891510,1509.025024 
	C383.237671,1507.564453 385.005920,1505.375854 386.167175,1505.340820 
	C395.966888,1505.045044 405.779388,1505.172119 416.684509,1505.172119 
	C404.628876,1553.095703 392.732574,1600.385742 380.755829,1647.995728 
	C367.360748,1647.995728 354.216339,1648.132202 341.084656,1647.786987 
	C339.757690,1647.751953 337.835205,1645.000732 337.322113,1643.189209 
	C329.752136,1616.462524 322.376984,1589.680664 314.944885,1562.914795 
	C314.378479,1560.875122 313.731293,1558.857910 312.736084,1555.548096 
	C307.186829,1571.731812 302.086121,1586.613525 296.981232,1601.493774 
	C292.069580,1615.810669 287.221100,1630.150269 282.137451,1644.405884 
	C281.617981,1645.862793 279.696594,1647.816772 278.392151,1647.842529 
	C265.413574,1648.098877 252.427933,1647.998047 239.187103,1647.998047 
	C238.753540,1646.384277 238.374649,1644.973999 237.926697,1643.148438 
z"/>
<path fill="#FFFFFE" opacity="1.000000" stroke="none" 
	d="
M469.189392,1558.176758 
	C469.900146,1557.489990 470.674408,1556.857178 471.312103,1556.108154 
	C482.313019,1543.186279 494.580872,1540.488281 513.380981,1547.624268 
	C524.576965,1551.873779 529.475159,1561.722534 529.865845,1572.965820 
	C530.708557,1597.217773 530.641602,1621.501343 530.934937,1645.772095 
	C530.940796,1646.256470 530.801941,1646.742676 530.674133,1647.611816 
	C520.983276,1647.611816 511.267242,1647.611816 500.803101,1647.611816 
	C500.803101,1645.885864 500.803101,1644.130493 500.803101,1642.375000 
	C500.802979,1623.219604 500.809845,1604.064331 500.793701,1584.908936 
	C500.791748,1582.578979 500.802551,1580.235474 500.574066,1577.921265 
	C499.569275,1567.744507 489.916321,1562.918701 481.809082,1569.196533 
	C473.956116,1575.277100 467.982025,1582.880859 468.143982,1593.901733 
	C468.405518,1611.698975 468.214264,1629.502686 468.214264,1647.651489 
	C458.128235,1647.651489 448.403229,1647.651489 438.357147,1647.651489 
	C438.357147,1599.678589 438.357147,1551.775757 438.357147,1503.435303 
	C447.932495,1503.435303 457.647278,1503.435303 468.242676,1503.435303 
	C468.242676,1521.173828 468.242676,1539.071045 468.236084,1557.653076 
	C468.549438,1558.284302 468.869415,1558.230591 469.189392,1558.176758 
z"/>
<path fill="#FFFEFE" opacity="1.000000" stroke="none" 
	d="
M956.996826,1621.902100 
	C957.278748,1600.162598 970.685181,1589.887329 988.099304,1586.286743 
	C997.120239,1584.421509 1006.573853,1584.472412 1015.849731,1584.102417 
	C1019.636841,1583.951294 1021.241150,1583.117798 1021.012878,1578.996582 
	C1020.541626,1570.490112 1016.940857,1566.903809 1008.423157,1567.230103 
	C995.653442,1567.719238 983.436951,1570.680542 971.342102,1575.905640 
	C967.898499,1567.767456 964.549377,1559.852783 960.688965,1550.729736 
	C970.212952,1548.900635 979.057312,1546.709961 988.035217,1545.594238 
	C1001.232483,1543.954224 1014.531372,1542.412354 1027.718140,1546.045776 
	C1042.729248,1550.181885 1050.442383,1559.546509 1051.179565,1575.041016 
	C1051.503784,1581.855713 1051.081909,1588.705566 1051.401001,1595.520630 
	C1052.207886,1612.754883 1053.242920,1629.978638 1054.228638,1647.974854 
	C1046.498047,1647.974854 1037.450195,1648.064697 1028.409912,1647.843018 
	C1027.449585,1647.819580 1026.325562,1646.094482 1025.646606,1644.941284 
	C1024.649780,1643.248047 1023.986084,1641.358765 1022.965637,1639.071777 
	C1019.658997,1641.333496 1016.478577,1643.302734 1013.523376,1645.565796 
	C1000.789490,1655.317383 976.128418,1650.815430 966.517456,1642.916626 
	C960.040955,1637.593994 957.347229,1630.518921 956.996826,1621.902100 
M1001.471130,1606.749512 
	C998.131592,1608.455688 994.279968,1609.586548 991.569275,1611.999268 
	C987.197815,1615.890137 987.514526,1623.870972 991.906616,1625.825073 
	C998.664795,1628.832031 1005.677185,1629.552734 1012.263428,1624.960449 
	C1021.344055,1618.629272 1022.618286,1615.593750 1020.257568,1604.768188 
	C1014.341736,1605.348389 1008.306152,1605.940308 1001.471130,1606.749512 
z"/>
<path fill="#FFFEFD" opacity="1.000000" stroke="none" 
	d="
M834.140625,1591.998535 
	C834.516968,1598.213745 834.897827,1603.961670 835.325928,1610.421631 
	C812.211182,1610.421631 789.651428,1610.421631 767.117798,1610.421631 
	C766.891785,1620.457886 775.987122,1629.725952 786.485962,1628.710571 
	C796.083618,1627.782349 805.453674,1624.470215 814.910706,1622.154053 
	C816.159119,1621.848145 817.328247,1621.218506 819.061218,1620.529175 
	C822.285583,1628.000244 825.419250,1635.261230 828.528320,1642.465332 
	C827.997314,1643.100342 827.763977,1643.655762 827.375000,1643.804932 
	C808.961487,1650.865234 790.031860,1653.702148 770.677856,1648.930542 
	C753.217468,1644.625854 742.400452,1632.963257 736.979004,1615.965576 
	C731.390625,1598.444336 733.931091,1581.752319 742.564697,1566.015259 
	C750.363342,1551.800049 763.570496,1545.269653 779.174072,1544.333130 
	C787.356567,1543.842041 795.892456,1544.698486 803.888855,1546.569702 
	C822.076965,1550.826172 829.478210,1564.777466 832.854736,1581.637207 
	C833.506409,1584.890869 833.726257,1588.231079 834.140625,1591.998535 
M775.270752,1569.487915 
	C768.593384,1573.764648 766.448547,1580.138550 766.429932,1587.907837 
	C779.424011,1587.907837 791.998291,1587.907837 804.580383,1587.907837 
	C804.043457,1571.155029 791.863342,1563.276733 775.270752,1569.487915 
z"/>
<path fill="#FFFEFE" opacity="1.000000" stroke="none" 
	d="
M1206.494263,1625.634888 
	C1211.064087,1623.945679 1215.257690,1622.399536 1220.064331,1620.627197 
	C1223.254150,1628.031982 1226.435669,1635.417236 1230.227417,1644.219360 
	C1220.561035,1646.350586 1211.797729,1649.327026 1202.864868,1649.978760 
	C1192.532593,1650.732544 1181.796143,1650.731567 1171.692627,1648.739258 
	C1155.714355,1645.588501 1145.073486,1634.931152 1139.244995,1619.768555 
	C1132.262329,1601.603638 1134.039185,1583.834839 1143.009033,1566.885620 
	C1150.789551,1552.183594 1164.102539,1545.140747 1180.113770,1544.385254 
	C1189.245483,1543.954346 1198.670044,1545.526978 1207.666138,1547.529907 
	C1217.867920,1549.801147 1224.594360,1557.145996 1228.947632,1566.456909 
	C1233.013916,1575.153809 1234.925781,1584.368652 1235.076782,1594.009033 
	C1235.158813,1599.246704 1235.867188,1604.474609 1236.340332,1610.287964 
	C1213.088257,1610.287964 1190.513672,1610.287964 1167.956421,1610.287964 
	C1167.728394,1620.164673 1176.604370,1629.059204 1187.051270,1628.823853 
	C1193.426636,1628.680298 1199.763794,1626.850464 1206.494263,1625.634888 
M1187.271118,1567.188965 
	C1174.889282,1566.013550 1165.678833,1577.110352 1167.754150,1587.724365 
	C1180.386108,1587.724365 1193.036377,1587.724365 1205.736816,1587.724365 
	C1204.040283,1574.156982 1200.031738,1569.591187 1187.271118,1567.188965 
z"/>
<path fill="#FFFEFD" opacity="1.000000" stroke="none" 
	d="
M1382.387695,1548.203125 
	C1395.296143,1543.679810 1408.167480,1542.520508 1421.105347,1545.477783 
	C1443.225830,1550.534180 1455.629639,1564.421875 1457.675171,1587.173096 
	C1458.455811,1595.855469 1458.249512,1604.957153 1456.526489,1613.469727 
	C1451.990234,1635.878784 1434.980591,1650.059570 1412.083496,1650.834717 
	C1403.712036,1651.118042 1394.982788,1650.472778 1386.926880,1648.331787 
	C1372.330811,1644.452393 1362.468262,1634.583740 1357.530762,1620.173828 
	C1353.163574,1607.427979 1352.491577,1594.359863 1355.481567,1581.276367 
	C1358.950684,1566.097412 1367.639404,1554.853882 1382.387695,1548.203125 
M1423.693848,1575.011719 
	C1418.602295,1566.159302 1410.100952,1566.394287 1401.684204,1567.088257 
	C1393.873047,1567.732178 1388.749634,1572.260742 1386.797485,1579.808838 
	C1383.649292,1591.981201 1383.414062,1604.225708 1387.830688,1616.156738 
	C1390.939697,1624.555298 1397.126587,1628.245850 1406.544067,1628.158081 
	C1415.380859,1628.075562 1422.116821,1624.122437 1424.552979,1615.845825 
	C1428.468506,1602.543701 1428.803101,1589.017944 1423.693848,1575.011719 
z"/>
<path fill="#FFFEFD" opacity="1.000000" stroke="none" 
	d="
M1544.340454,1545.526978 
	C1565.388306,1550.697144 1576.821289,1563.222778 1580.204224,1584.519165 
	C1581.896240,1595.170776 1581.851929,1605.789307 1578.849243,1616.195190 
	C1573.712769,1633.995972 1562.353149,1645.563965 1544.011963,1649.550903 
	C1531.061157,1652.366089 1518.207642,1651.914307 1505.725830,1647.028687 
	C1493.902710,1642.400879 1485.680542,1634.005859 1481.145264,1622.259521 
	C1475.907227,1608.692993 1475.070801,1594.612793 1478.522095,1580.540405 
	C1483.959961,1558.367432 1500.983765,1544.974487 1524.565796,1544.190308 
	C1531.005737,1543.975952 1537.485474,1544.955444 1544.340454,1545.526978 
M1528.555176,1628.159912 
	C1539.338135,1627.955933 1545.415771,1623.808472 1548.255005,1613.361694 
	C1551.260376,1602.304565 1551.148560,1590.943237 1548.395264,1579.836060 
	C1546.185059,1570.919678 1540.742676,1567.186279 1531.250854,1566.851318 
	C1519.287476,1566.429199 1513.211792,1569.640259 1510.026855,1578.595947 
	C1505.584717,1591.086548 1505.902710,1603.638672 1510.546509,1616.013428 
	C1513.474854,1623.817261 1519.249878,1627.921997 1528.555176,1628.159912 
z"/>
<path fill="#FFFEFD" opacity="1.000000" stroke="none" 
	d="
M642.423828,1638.432373 
	C626.060608,1654.502197 590.885376,1655.018188 573.076904,1642.117676 
	C566.317932,1637.221558 561.109253,1630.982300 558.092285,1623.172241 
	C552.401733,1608.441406 551.244385,1593.351807 555.802673,1578.133301 
	C561.077576,1560.522461 572.687378,1549.544189 590.843994,1545.655151 
	C602.128906,1543.237915 613.313721,1543.341675 624.434998,1546.454590 
	C640.762207,1551.024536 651.394287,1561.519165 655.313049,1577.954956 
	C660.537109,1599.865479 659.161987,1620.686157 642.423828,1638.432373 
M626.994629,1594.581055 
	C626.344421,1589.645996 626.170715,1584.588379 624.940735,1579.802246 
	C622.664307,1570.944580 617.264526,1567.162476 607.773132,1566.850708 
	C595.800049,1566.457275 589.512695,1569.639526 586.616089,1578.683838 
	C582.594727,1591.240234 582.744568,1603.990845 587.313782,1616.406860 
	C590.304810,1624.534424 596.575623,1628.214844 605.691956,1628.162231 
	C614.673401,1628.110474 621.364746,1624.289429 623.794922,1616.083252 
	C625.745361,1609.496948 625.998413,1602.407959 626.994629,1594.581055 
z"/>
<path fill="#FFFFFF" opacity="1.000000" stroke="none" 
	d="
M1250.168945,1529.968384 
	C1250.168945,1521.982788 1250.168945,1513.997314 1250.168945,1505.589111 
	C1286.407104,1505.589111 1322.442383,1505.589111 1358.845459,1505.589111 
	C1358.845459,1513.888672 1358.845459,1522.128296 1358.845459,1531.087402 
	C1346.666992,1531.087402 1334.454956,1531.087402 1321.657715,1531.087402 
	C1321.657715,1570.365356 1321.657715,1608.934814 1321.657715,1647.749023 
	C1310.280640,1647.749023 1299.506470,1647.749023 1288.179199,1647.749023 
	C1288.179199,1609.195312 1288.179199,1570.636108 1288.179199,1531.127319 
	C1275.740723,1531.127319 1263.835327,1531.127319 1251.351196,1530.873535 
	C1250.592773,1530.382812 1250.391602,1530.165649 1250.168945,1529.968384 
z"/>
<path fill="#FFFEFD" opacity="1.000000" stroke="none" 
	d="
M908.577026,1620.356689 
	C905.347656,1618.061279 902.441040,1615.550537 899.067261,1614.297607 
	C892.383423,1611.815063 885.263672,1610.477661 878.641663,1607.862549 
	C862.567078,1601.514282 854.447693,1589.582642 855.112610,1572.845703 
	C855.493530,1563.257935 859.300354,1554.703491 868.542175,1550.562378 
	C874.971741,1547.681519 882.004700,1545.559326 888.975281,1544.592773 
	C904.903137,1542.384033 920.393677,1545.659180 936.426453,1550.161133 
	C933.043457,1558.317505 929.785950,1566.171387 926.420715,1574.285034 
	C922.165405,1572.515381 918.395813,1570.823975 914.536987,1569.369385 
	C907.363525,1566.665527 899.886719,1565.784668 892.495422,1567.760620 
	C890.105591,1568.399536 886.852844,1571.147095 886.655090,1573.187622 
	C886.446472,1575.341431 888.901611,1578.877808 891.093140,1579.923462 
	C897.056763,1582.768311 903.524597,1584.540283 909.736389,1586.886475 
	C913.924438,1588.468506 918.170593,1590.009888 922.124207,1592.078735 
	C935.437012,1599.045410 940.826172,1610.176147 938.997253,1626.255249 
	C937.819824,1636.606689 928.286804,1645.737793 915.125977,1648.913330 
	C896.974304,1653.293335 879.089417,1651.011230 861.324463,1646.502319 
	C858.619080,1645.815674 855.955322,1644.965576 852.718872,1644.031372 
	C856.206970,1635.697144 859.508301,1627.809448 863.064819,1619.311768 
	C867.659790,1621.121826 871.966858,1622.695801 876.174377,1624.501709 
	C884.699402,1628.160522 893.482117,1629.115112 902.558472,1627.293335 
	C906.125732,1626.577271 908.809143,1624.918335 908.577026,1620.356689 
z"/>
<path fill="#FFFFFF" opacity="1.000000" stroke="none" 
	d="
M1604.590088,1517.005249 
	C1604.589966,1512.210327 1604.589966,1507.914062 1604.589966,1503.312012 
	C1614.803345,1503.312012 1624.526611,1503.312012 1634.546143,1503.312012 
	C1634.546143,1551.405518 1634.546143,1599.289429 1634.546143,1647.586914 
	C1624.823975,1647.586914 1615.117920,1647.586914 1604.590332,1647.586914 
	C1604.590332,1604.249023 1604.590332,1560.876465 1604.590088,1517.005249 
z"/>
<path fill="#FFFFFF" opacity="1.000000" stroke="none" 
	d="
M1108.811523,1647.997314 
	C1099.839600,1647.999878 1091.352295,1647.999878 1082.453125,1647.999878 
	C1082.453125,1599.758545 1082.453125,1551.739502 1082.453125,1503.359375 
	C1092.093750,1503.359375 1101.808838,1503.359375 1111.880127,1503.359375 
	C1111.990112,1504.838379 1112.190308,1506.277344 1112.190796,1507.716431 
	C1112.207275,1552.852295 1112.217407,1597.988159 1112.161011,1643.124023 
	C1112.158569,1645.123535 1113.392822,1648.238647 1108.811523,1647.997314 
z"/>
<path fill="#FFFFFE" opacity="1.000000" stroke="none" 
	d="
M681.068604,1618.000000 
	C681.068604,1579.562012 681.068604,1541.623901 681.068604,1503.342773 
	C691.175354,1503.342773 700.889465,1503.342773 710.931030,1503.342773 
	C710.931030,1551.474854 710.931030,1599.480225 710.931030,1647.743652 
	C701.063049,1647.743652 691.461853,1647.743652 681.068604,1647.743652 
	C681.068604,1637.997559 681.068604,1628.248779 681.068604,1618.000000 
z"/>
<path fill="#F8EACC" opacity="1.000000" stroke="none" 
	d="
M1250.145752,1530.241211 
	C1250.391602,1530.165649 1250.592773,1530.382812 1250.885986,1530.810913 
	C1250.707275,1530.839233 1250.414795,1530.676636 1250.145752,1530.241211 
z"/>
<path fill="#EBC16A" opacity="1.000000" stroke="none" 
	d="
M468.983582,1558.069214 
	C468.869415,1558.230591 468.549438,1558.284302 468.274292,1558.113037 
	C468.319153,1557.888062 468.777771,1557.961548 468.983582,1558.069214 
z"/>
<path fill="#E3A830" opacity="1.000000" stroke="none" 
	d="
M1001.870850,1606.640869 
	C1008.306152,1605.940308 1014.341736,1605.348389 1020.257568,1604.768188 
	C1022.618286,1615.593750 1021.344055,1618.629272 1012.263428,1624.960449 
	C1005.677185,1629.552734 998.664795,1628.832031 991.906616,1625.825073 
	C987.514526,1623.870972 987.197815,1615.890137 991.569275,1611.999268 
	C994.279968,1609.586548 998.131592,1608.455688 1001.870850,1606.640869 
z"/>
<path fill="#E3A830" opacity="1.000000" stroke="none" 
	d="
M775.614746,1569.314209 
	C791.863342,1563.276733 804.043457,1571.155029 804.580383,1587.907837 
	C791.998291,1587.907837 779.424011,1587.907837 766.429932,1587.907837 
	C766.448547,1580.138550 768.593384,1573.764648 775.614746,1569.314209 
z"/>
<path fill="#E3A830" opacity="1.000000" stroke="none" 
	d="
M1187.691162,1567.228760 
	C1200.031738,1569.591187 1204.040283,1574.156982 1205.736816,1587.724365 
	C1193.036377,1587.724365 1180.386108,1587.724365 1167.754150,1587.724365 
	C1165.678833,1577.110352 1174.889282,1566.013550 1187.691162,1567.228760 
z"/>
<path fill="#E3A82E" opacity="1.000000" stroke="none" 
	d="
M1423.857910,1575.354736 
	C1428.803101,1589.017944 1428.468506,1602.543701 1424.552979,1615.845825 
	C1422.116821,1624.122437 1415.380859,1628.075562 1406.544067,1628.158081 
	C1397.126587,1628.245850 1390.939697,1624.555298 1387.830688,1616.156738 
	C1383.414062,1604.225708 1383.649292,1591.981201 1386.797485,1579.808838 
	C1388.749634,1572.260742 1393.873047,1567.732178 1401.684204,1567.088257 
	C1410.100952,1566.394287 1418.602295,1566.159302 1423.857910,1575.354736 
z"/>
<path fill="#E3A82E" opacity="1.000000" stroke="none" 
	d="
M1528.107544,1628.158691 
	C1519.249878,1627.921997 1513.474854,1623.817261 1510.546509,1616.013428 
	C1505.902710,1603.638672 1505.584717,1591.086548 1510.026855,1578.595947 
	C1513.211792,1569.640259 1519.287476,1566.429199 1531.250854,1566.851318 
	C1540.742676,1567.186279 1546.185059,1570.919678 1548.395264,1579.836060 
	C1551.148560,1590.943237 1551.260376,1602.304565 1548.255005,1613.361694 
	C1545.415771,1623.808472 1539.338135,1627.955933 1528.107544,1628.158691 
z"/>
<path fill="#E3A82F" opacity="1.000000" stroke="none" 
	d="
M626.999634,1595.061523 
	C625.998413,1602.407959 625.745361,1609.496948 623.794922,1616.083252 
	C621.364746,1624.289429 614.673401,1628.110474 605.691956,1628.162231 
	C596.575623,1628.214844 590.304810,1624.534424 587.313782,1616.406860 
	C582.744568,1603.990845 582.594727,1591.240234 586.616089,1578.683838 
	C589.512695,1569.639526 595.800049,1566.457275 607.773132,1566.850708 
	C617.264526,1567.162476 622.664307,1570.944580 624.940735,1579.802246 
	C626.170715,1584.588379 626.344421,1589.645996 626.999634,1595.061523 
z"/>
</svg>