<?xml version="1.0" standalone="no"?>
<!DOCTYPE svg PUBLIC "-//W3C//DTD SVG 20010904//EN"
 "http://www.w3.org/TR/2001/REC-SVG-20010904/DTD/svg10.dtd">
<svg version="1.0" xmlns="http://www.w3.org/2000/svg"
 width="1863.000000pt" height="1863.000000pt" viewBox="0 0 1863.000000 1863.000000"
 preserveAspectRatio="xMidYMid meet">

<g transform="translate(0.000000,1863.000000) scale(0.100000,-0.100000)"
fill="#000000" stroke="none">
<path d="M9269 16178 c-89 -103 -209 -242 -227 -264 -35 -42 -147 -170 -167
-189 -11 -11 -39 -45 -62 -75 -23 -30 -62 -76 -85 -101 -24 -25 -60 -66 -81
-91 -20 -26 -55 -65 -77 -88 -22 -23 -40 -44 -40 -47 0 -3 -11 -16 -25 -29
-14 -13 -25 -27 -25 -31 0 -5 -8 -16 -17 -24 -10 -9 -39 -40 -64 -70 -76 -88
-174 -202 -200 -232 -13 -16 -39 -45 -57 -65 -18 -21 -59 -68 -90 -107 -31
-38 -65 -79 -75 -90 -11 -11 -42 -47 -70 -79 -29 -33 -68 -78 -87 -100 -20
-23 -58 -68 -85 -101 -28 -33 -57 -67 -65 -76 -63 -68 -97 -107 -170 -194 -92
-111 -169 -200 -245 -285 -92 -103 -130 -146 -165 -191 -19 -24 -59 -69 -87
-101 -29 -32 -63 -69 -75 -84 -13 -15 -28 -32 -33 -38 -6 -6 -28 -33 -50 -61
-22 -27 -75 -90 -119 -140 -44 -49 -86 -97 -92 -105 -7 -8 -25 -28 -40 -44
-14 -16 -61 -70 -102 -120 -42 -50 -79 -93 -82 -96 -3 -3 -48 -54 -100 -115
-52 -60 -100 -116 -107 -123 -37 -38 -83 -101 -83 -112 0 -10 82 -114 114
-145 6 -5 34 -37 61 -70 28 -33 57 -67 65 -75 15 -17 92 -105 151 -175 19 -22
39 -45 44 -51 54 -61 121 -138 138 -161 12 -15 31 -37 42 -48 11 -11 49 -54
84 -95 85 -101 156 -183 212 -244 26 -28 59 -67 75 -86 16 -19 33 -40 39 -46
5 -6 24 -28 40 -49 17 -21 35 -43 40 -49 75 -81 231 -262 330 -381 33 -38 61
-72 64 -75 10 -8 74 -83 116 -134 22 -27 47 -56 56 -65 9 -9 43 -47 75 -86 32
-38 68 -81 79 -94 11 -13 33 -38 48 -55 16 -17 45 -51 65 -76 21 -24 44 -52
52 -61 8 -9 22 -25 30 -35 9 -10 36 -42 60 -70 25 -28 65 -75 90 -104 25 -29
52 -60 60 -69 9 -9 43 -47 75 -86 33 -38 65 -75 70 -81 6 -6 30 -35 55 -64 25
-29 50 -58 55 -64 6 -6 50 -58 99 -116 49 -58 94 -109 100 -115 7 -5 45 -50
85 -100 41 -49 86 -101 100 -115 22 -21 72 -79 196 -229 11 -13 25 -29 30 -35
32 -34 123 -136 140 -157 19 -22 168 -197 225 -263 14 -16 32 -36 41 -45 9 -9
67 -77 129 -151 63 -74 126 -147 140 -161 14 -15 30 -33 35 -40 20 -27 249
-294 270 -315 11 -11 34 -37 50 -58 17 -22 37 -47 46 -56 40 -43 262 -305 275
-326 13 -18 13 -27 3 -46 -7 -13 -15 -25 -19 -28 -3 -3 -48 -54 -100 -115 -52
-60 -108 -126 -126 -145 -41 -44 -66 -73 -112 -129 -21 -24 -46 -54 -57 -67
-21 -23 -25 -28 -110 -129 -27 -33 -61 -72 -75 -86 -14 -14 -45 -50 -70 -79
-25 -29 -50 -58 -55 -64 -6 -6 -45 -51 -87 -101 -41 -49 -93 -109 -114 -132
-22 -23 -46 -51 -54 -64 -8 -12 -53 -65 -100 -118 -46 -53 -93 -107 -105 -120
-62 -75 -83 -94 -97 -88 -9 3 -59 57 -111 120 -53 63 -108 125 -121 138 -14
13 -26 30 -26 37 0 6 -4 12 -8 12 -5 0 -40 37 -78 83 -110 131 -207 242 -216
245 -4 2 -8 8 -8 12 0 5 -12 22 -27 39 -33 34 -59 63 -138 156 -33 38 -67 76
-75 85 -8 9 -26 30 -39 46 -13 16 -40 47 -60 70 -20 22 -47 53 -61 70 -38 45
-143 168 -155 180 -5 6 -32 37 -60 69 -27 32 -65 75 -82 95 -32 36 -42 65 -25
72 4 2 17 16 29 31 12 15 44 54 71 85 28 31 80 93 117 136 37 44 72 85 78 91
7 7 28 32 49 56 51 62 74 88 116 134 71 77 152 182 152 198 0 16 -60 95 -126
167 -18 19 -43 48 -56 65 -12 16 -34 41 -48 56 -41 43 -73 80 -120 139 -24 30
-49 60 -55 65 -6 6 -53 60 -105 120 -51 61 -96 112 -100 115 -3 3 -38 43 -77
90 -39 47 -81 97 -94 111 -13 14 -46 52 -73 85 -28 32 -57 66 -65 75 -19 19
-53 58 -99 114 -55 66 -125 146 -155 179 -16 17 -36 41 -44 54 -22 32 -45 27
-78 -16 -38 -49 -154 -184 -259 -302 -17 -19 -42 -48 -54 -65 -13 -16 -58 -67
-100 -114 -42 -46 -86 -96 -97 -111 -19 -25 -131 -154 -165 -190 -8 -8 -25
-29 -38 -45 -13 -17 -40 -48 -61 -70 -20 -22 -64 -74 -96 -115 -32 -41 -68
-84 -79 -95 -12 -11 -61 -68 -111 -125 -127 -149 -209 -244 -215 -250 -3 -3
-30 -34 -60 -70 -30 -36 -73 -85 -95 -110 -41 -47 -102 -119 -151 -180 -16
-19 -37 -43 -48 -52 -10 -10 -29 -31 -41 -48 -12 -17 -44 -54 -71 -83 -27 -29
-66 -74 -87 -100 -43 -52 -47 -38 43 -142 63 -72 82 -95 189 -220 51 -60 115
-136 143 -167 27 -31 59 -70 71 -85 21 -27 75 -88 107 -122 9 -9 61 -68 115
-131 55 -63 116 -132 135 -153 19 -21 39 -46 44 -55 5 -10 12 -19 16 -22 9 -7
174 -193 225 -254 21 -26 48 -58 60 -71 38 -43 112 -130 180 -210 80 -95 109
-129 185 -215 80 -90 298 -344 338 -394 19 -23 66 -76 105 -120 40 -43 74 -84
77 -90 6 -14 44 -58 96 -111 22 -23 56 -62 74 -86 44 -56 198 -230 218 -246
13 -10 305 -13 1387 -13 1082 0 1374 3 1386 13 15 12 134 145 180 201 40 49
153 179 179 207 14 14 54 62 90 105 36 43 72 86 80 94 8 9 31 36 51 60 20 25
58 68 84 95 26 28 80 91 121 140 40 50 87 106 104 125 18 19 55 61 83 94 29
32 61 68 72 80 11 13 38 45 60 71 36 44 234 274 260 301 5 6 28 33 50 60 22
27 60 71 85 99 57 64 130 150 166 195 16 19 38 44 49 55 11 11 30 32 41 47 18
23 62 74 159 182 6 6 28 34 50 61 22 28 45 55 51 60 9 9 151 172 225 259 13
16 31 36 39 45 9 9 45 50 80 91 36 41 68 77 73 78 17 8 4 40 -36 83 -50 56
-104 118 -263 304 -65 77 -126 147 -134 155 -8 9 -33 37 -55 64 -51 61 -56 68
-135 156 -36 40 -69 79 -73 87 -5 8 -24 30 -43 50 -19 19 -51 56 -72 81 -20
26 -46 56 -57 67 -12 11 -49 54 -83 95 -89 107 -133 159 -162 189 -14 14 -39
42 -55 62 -37 44 -198 232 -268 313 -76 87 -111 128 -135 156 -11 14 -33 39
-47 55 -15 17 -43 50 -63 75 -20 25 -40 47 -43 50 -3 3 -50 57 -104 120 -53
63 -125 146 -159 184 -33 38 -63 74 -65 79 -2 6 -16 22 -31 36 -14 14 -64 71
-111 126 -46 55 -89 105 -95 110 -6 6 -33 37 -60 70 -44 54 -92 110 -134 155
-48 52 -130 149 -130 154 0 3 -17 23 -38 44 -20 20 -66 71 -102 112 -36 41
-79 91 -97 110 -17 19 -42 49 -54 65 -13 17 -43 53 -68 81 -25 28 -57 64 -70
80 -13 16 -39 47 -59 69 -19 22 -54 63 -78 90 -24 28 -73 85 -109 128 -36 44
-83 98 -104 120 -21 23 -65 74 -97 112 -50 60 -143 168 -228 265 -12 14 -87
101 -166 195 -80 93 -152 177 -160 186 -25 27 -61 68 -160 184 -113 132 -181
209 -221 251 -43 46 -38 70 31 143 33 35 60 65 60 66 0 3 34 44 100 120 25 28
61 71 82 96 20 24 44 53 55 65 67 77 129 149 184 214 101 119 112 130 125 130
7 0 34 -25 61 -56 86 -101 204 -237 263 -304 32 -36 69 -78 81 -95 20 -26 155
-182 169 -195 3 -3 22 -25 42 -50 20 -25 55 -65 78 -90 23 -25 67 -76 98 -115
32 -38 66 -79 77 -90 11 -11 45 -49 75 -85 30 -36 57 -67 60 -70 6 -6 105
-122 165 -195 22 -26 54 -62 70 -80 17 -18 55 -61 85 -96 30 -34 60 -67 65
-73 6 -6 21 -24 34 -41 36 -48 94 -115 126 -149 16 -17 81 -92 144 -166 63
-74 121 -141 128 -148 7 -7 13 -16 13 -20 0 -4 16 -19 35 -35 l35 -27 37 37
c21 21 47 50 58 64 19 24 47 56 201 233 39 44 81 94 95 110 32 39 232 270 239
276 4 4 41 48 131 154 13 16 29 34 36 41 7 7 54 62 104 121 50 60 94 111 98
114 3 3 28 32 55 65 28 33 58 68 67 77 43 43 129 157 129 171 0 9 -6 22 -12
29 -7 7 -38 42 -68 78 -64 76 -57 67 -138 158 -35 39 -86 98 -112 131 -27 33
-65 77 -85 98 -21 21 -54 58 -74 83 -20 25 -38 47 -41 50 -3 3 -36 41 -75 85
-38 44 -72 82 -75 85 -3 3 -17 21 -32 41 -15 20 -40 50 -55 66 -15 16 -53 58
-83 93 -30 36 -89 103 -130 151 -41 47 -86 99 -99 115 -14 16 -54 63 -90 104
-36 41 -72 84 -81 94 -34 43 -105 125 -159 186 -32 36 -113 130 -180 210 -109
129 -223 260 -258 296 -7 7 -34 39 -60 72 -27 32 -66 80 -88 104 -22 25 -65
74 -95 109 -30 35 -89 102 -130 150 -104 120 -163 189 -179 213 -8 11 -31 36
-50 56 -41 41 -115 127 -186 215 -27 33 -54 65 -60 70 -6 6 -40 44 -76 85 -67
78 -77 90 -155 182 -176 207 -220 257 -225 257 -3 1 -30 -27 -60 -61z"/>
</g>
</svg>
